<svg width="500" height="500" viewBox="0 0 500 500" xmlns="http://www.w3.org/2000/svg">
  <!-- Background -->
  <rect width="500" height="500" fill="#0a0a0a"/>
  
  <!-- Outer glow -->
  <defs>
    <radialGradient id="glow" cx="50%" cy="50%">
      <stop offset="0%" style="stop-color:#00ff00;stop-opacity:0.3" />
      <stop offset="100%" style="stop-color:#00ff00;stop-opacity:0" />
    </radialGradient>
    
    <filter id="neonGlow">
      <feGaussianBlur stdDeviation="4" result="coloredBlur"/>
      <feMerge>
        <feMergeNode in="coloredBlur"/>
        <feMergeNode in="SourceGraphic"/>
      </feMerge>
    </filter>
  </defs>
  
  <!-- Glow circle -->
  <circle cx="250" cy="250" r="200" fill="url(#glow)"/>
  
  <!-- Snake body (coiled) -->
  <g filter="url(#neonGlow)">
    <!-- Outer coil -->
    <path d="M 250 100 Q 350 150 350 250 Q 350 350 250 350 Q 150 350 150 250 Q 150 180 200 150" 
          fill="none" stroke="#00ff00" stroke-width="35" stroke-linecap="round" stroke-linejoin="round"/>
    
    <!-- Middle coil -->
    <path d="M 200 150 Q 220 170 220 220 Q 220 280 250 280 Q 280 280 280 240" 
          fill="none" stroke="#00ff00" stroke-width="35" stroke-linecap="round" stroke-linejoin="round"/>
    
    <!-- Inner segment -->
    <path d="M 280 240 Q 280 210 260 200" 
          fill="none" stroke="#00ff00" stroke-width="35" stroke-linecap="round"/>
    
    <!-- Snake head -->
    <circle cx="260" cy="200" r="25" fill="#00ff00"/>
    
    <!-- Eyes -->
    <circle cx="253" cy="195" r="4" fill="#0a0a0a"/>
    <circle cx="267" cy="195" r="4" fill="#0a0a0a"/>
    
    <!-- Tongue -->
    <path d="M 260 205 L 260 215 M 258 215 L 255 220 M 262 215 L 265 220" 
          stroke="#ff0000" stroke-width="2" fill="none"/>
  </g>
</svg>
